<svg xmlns="http://www.w3.org/2000/svg" viewBox="0 0 1280 640" width="1280" height="640">
<defs>
 <linearGradient id="g" x1="0" y1="0" x2="1" y2="1">
  <stop offset="0" stop-color="#1f4e8c"/>
  <stop offset="0.55" stop-color="#2f6fb3"/>
  <stop offset="1" stop-color="#3b82c4"/>
 </linearGradient>
 <linearGradient id="bg" x1="0" y1="0" x2="0" y2="1">
  <stop offset="0" stop-color="#ffffff"/>
  <stop offset="1" stop-color="#eef3f9"/>
 </linearGradient>
</defs>

<rect width="1280" height="640" fill="url(#bg)"/>
<rect x="0" y="632" width="1280" height="8" fill="url(#g)"/>

<!-- arena mark, centered, scaled x1.28 -->
<g transform="translate(460.8, 45.68) scale(1.28)" fill="url(#g)" fill-rule="evenodd">
 <path d="M 18.0,64.0 L 20.5,73.0 L 22.9,76.7 L 25.4,79.4 L 27.9,81.7 L 30.3,83.7 L 32.8,85.5 L 35.3,87.1 L 37.7,88.5 L 40.2,89.9 L 42.6,91.1 L 45.1,92.3 L 47.6,93.4 L 50.0,94.4 L 52.5,95.4 L 55.0,96.3 L 57.4,97.1 L 59.9,97.9 L 62.4,98.7 L 64.8,99.4 L 67.3,100.1 L 69.8,100.8 L 72.2,101.4 L 74.7,102.0 L 77.2,102.6 L 79.6,103.1 L 82.1,103.6 L 84.5,104.1 L 87.0,104.5 L 89.5,105.0 L 91.9,105.4 L 94.4,105.7 L 96.9,106.1 L 99.3,106.4 L 101.8,106.7 L 104.3,107.0 L 106.7,107.3 L 109.2,107.5 L 111.7,107.8 L 114.1,108.0 L 116.6,108.2 L 119.1,108.3 L 121.5,108.5 L 124.0,108.6 L 126.4,108.7 L 128.9,108.8 L 131.4,108.9 L 133.8,108.9 L 136.3,109.0 L 138.8,109.0 L 141.2,109.0 L 143.7,109.0 L 146.2,108.9 L 148.6,108.9 L 151.1,108.8 L 153.6,108.7 L 156.0,108.6 L 158.5,108.5 L 160.9,108.3 L 163.4,108.2 L 165.9,108.0 L 168.3,107.8 L 170.8,107.5 L 173.3,107.3 L 175.7,107.0 L 178.2,106.7 L 180.7,106.4 L 183.1,106.1 L 185.6,105.7 L 188.1,105.4 L 190.5,105.0 L 193.0,104.5 L 195.5,104.1 L 197.9,103.6 L 200.4,103.1 L 202.8,102.6 L 205.3,102.0 L 207.8,101.4 L 210.2,100.8 L 212.7,100.1 L 215.2,99.4 L 217.6,98.7 L 220.1,97.9 L 222.6,97.1 L 225.0,96.3 L 227.5,95.4 L 230.0,94.4 L 232.4,93.4 L 234.9,92.3 L 237.4,91.1 L 239.8,89.9 L 242.3,88.5 L 244.7,87.1 L 247.2,85.5 L 249.7,83.7 L 252.1,81.7 L 254.6,79.4 L 257.1,76.7 L 259.5,73.0 L 262.0,64.0 L 262.0,138.0 L 259.5,147.0 L 257.1,150.7 L 254.6,153.4 L 252.1,155.7 L 249.7,157.7 L 247.2,159.5 L 244.7,161.1 L 242.3,162.5 L 239.8,163.9 L 237.4,165.1 L 234.9,166.3 L 232.4,167.4 L 230.0,168.4 L 227.5,169.4 L 225.0,170.3 L 222.6,171.1 L 220.1,171.9 L 217.6,172.7 L 215.2,173.4 L 212.7,174.1 L 210.2,174.8 L 207.8,175.4 L 205.3,176.0 L 202.8,176.6 L 200.4,177.1 L 197.9,177.6 L 195.5,178.1 L 193.0,178.5 L 190.5,179.0 L 188.1,179.4 L 185.6,179.7 L 183.1,180.1 L 180.7,180.4 L 178.2,180.7 L 175.7,181.0 L 173.3,181.3 L 170.8,181.5 L 168.3,181.8 L 165.9,182.0 L 163.4,182.2 L 160.9,182.3 L 158.5,182.5 L 156.0,182.6 L 153.6,182.7 L 151.1,182.8 L 148.6,182.9 L 146.2,182.9 L 143.7,183.0 L 141.2,183.0 L 138.8,183.0 L 136.3,183.0 L 133.8,182.9 L 131.4,182.9 L 128.9,182.8 L 126.4,182.7 L 124.0,182.6 L 121.5,182.5 L 119.1,182.3 L 116.6,182.2 L 114.1,182.0 L 111.7,181.8 L 109.2,181.5 L 106.7,181.3 L 104.3,181.0 L 101.8,180.7 L 99.3,180.4 L 96.9,180.1 L 94.4,179.7 L 91.9,179.4 L 89.5,179.0 L 87.0,178.5 L 84.5,178.1 L 82.1,177.6 L 79.6,177.1 L 77.2,176.6 L 74.7,176.0 L 72.2,175.4 L 69.8,174.8 L 67.3,174.1 L 64.8,173.4 L 62.4,172.7 L 59.9,171.9 L 57.4,171.1 L 55.0,170.3 L 52.5,169.4 L 50.0,168.4 L 47.6,167.4 L 45.1,166.3 L 42.6,165.1 L 40.2,163.9 L 37.7,162.5 L 35.3,161.1 L 32.8,159.5 L 30.3,157.7 L 27.9,155.7 L 25.4,153.4 L 22.9,150.7 L 20.5,147.0 L 18.0,138.0 Z M 25.8 147.6 L 25.8 100.7 A 3.1 3.1 0 0 1 32.0 100.7 L 32.0 147.6 Z M 42.7 158.4 L 42.7 113.3 A 4.9 4.9 0 0 1 52.5 113.3 L 52.5 158.4 Z M 67.6 166.8 L 67.6 123.1 A 6.3 6.3 0 0 1 80.2 123.1 L 80.2 166.8 Z M 98.4 172.2 L 98.4 129.4 A 7.2 7.2 0 0 1 112.7 129.4 L 112.7 172.2 Z M 128.0 177.0 L 128.0 128.0 A 12.0 12.0 0 0 1 152.0 128.0 L 152.0 177.0 Z M 167.3 172.2 L 167.3 129.4 A 7.2 7.2 0 0 1 181.6 129.4 L 181.6 172.2 Z M 199.8 166.8 L 199.8 123.1 A 6.3 6.3 0 0 1 212.4 123.1 L 212.4 166.8 Z M 227.5 158.4 L 227.5 113.3 A 4.9 4.9 0 0 1 237.3 113.3 L 237.3 158.4 Z M 248.0 147.6 L 248.0 100.7 A 3.1 3.1 0 0 1 254.2 100.7 L 254.2 147.6 Z"/>
 <path d="M 18.0 64.0 A 122.0 45.0 0 1 0 262.0 64.0 A 122.0 45.0 0 1 0 18.0 64.0 Z M 31.3 64.0 A 108.7 37.7 0 1 0 248.7 64.0 A 108.7 37.7 0 1 0 31.3 64.0 Z M 37.0 64.0 A 103.0 34.9 0 1 0 243.0 64.0 A 103.0 34.9 0 1 0 37.0 64.0 Z M 56.1 64.0 A 83.9 27.0 0 1 0 223.9 64.0 A 83.9 27.0 0 1 0 56.1 64.0 Z"/>
</g>

<!-- wordmark -->
<text x="640" y="400" text-anchor="middle"
      font-family="'Segoe UI', 'Helvetica Neue', Helvetica, Arial, sans-serif"
      font-size="104" font-weight="700" font-style="italic" letter-spacing="-2" fill="url(#g)">MAS-PromptBench</text>

<!-- gradient underline -->
<rect x="490" y="424" width="300" height="6" rx="3" fill="url(#g)"/>

<!-- tagline -->
<text x="640" y="492" text-anchor="middle"
      font-family="'Segoe UI', 'Helvetica Neue', Helvetica, Arial, sans-serif"
      font-size="36" font-weight="400" fill="#3d4a5c">When Does Prompt Optimization Improve Multi-Agent LLM Systems?</text>

<!-- subline -->
<text x="640" y="546" text-anchor="middle"
      font-family="'Segoe UI', 'Helvetica Neue', Helvetica, Arial, sans-serif"
      font-size="28" font-weight="600" fill="#5b6b80">5 topologies × 9 datasets · scored by each benchmark's official scorer</text>
</svg>
